Ghost in the Shell S.A.C. 2nd GIG s01e23-26 [DivX-AC3-ITA]6/6[Tntvillage]

Visit this link: http://www.tntvillage.scambioetico.org/?act=allreleases&st=0&filter=Ghost%20in%20the%20Shell&sb=1&sd=0&cat=0

Visit this link: http://www.tntvillage.scambioetico.org/?act=allreleases&st=0&filter=Pammy71&sb=1&sd=0&cat=0


 Visit this link: http://img137.Imageshack.us/img137/9264/pammy71.png
 Visit this link: http://img41.Imageshack.us/img41/1010/gits.jpg

 Visit this link: http://img137.Imageshack.us/img137/7341/trama.png
La sezione 9 ricomincia la propria lotta ai complotti dopo essere stata ricostituita (era stata sciolta al termine della precedente serie). Gli episodi della seconda serie mantengono gli aspetti che contraddistinguevano la prima serie Stand Alone Complex. Intrecci diplomatici, azione, riflessioni di natura filosofica, sociale e politica, il tutto attorno a un nuovo caso principale: se nella prima serie lo era stato l'Uomo che ride ora a farla da padrone è l'indagine sugli Undici individuali e sulle loro gesta apparentemente prive di senso.

Tutta la serie è incentrata sulla questione dei profughi delle precedenti due guerre mondiali (la terza e la quarta), che si sono ghettizzati all'interno di un'isola artificiale (Dejima), creando le premesse di quella che si sospetta possa essere un'insurrezione per la conquista della propria indipendenza dal Giappone. Il loro comandante militare e spirituale è Kuze Hideo, un cyborg con un corpo artificiale ad elevate prestazioni, molto simile a quello del maggiore Motoko Kusanagi. Si scopre che i due in realtà si sono conosciuti molto piccoli e che la presenza del maggiore abbia aiutato Kuze a scegliere di sostituire il proprio corpo con uno artificiale (a causa di una quasi totale paralisi del corpo che gli permetteva di muovere solo una mano, con cui faceva origami di gru). Tutta la vicenda dei profughi è magistralmente architettata dal capo del Servizio Informazioni, Kazundo Goda, per creare una sorta di complotto a livello internazionale (che vede coinvolto anche l'Impero americano) finalizzato alla militarizzazione dello stato e ad assumerne il controllo.

 Visit this link: http://img134.Imageshack.us/img134/2791/listaepisodi.png

    * 1. Riattivazione / REEMBODY
    * 2. Io che mangio a sazietà / NIGHT CRUISE
    * 3. Sabato notte e domenica mattina / CASH EYE
    * 4. Nemico naturale / NATURAL ENEMY
    * 5. Individui con un movente / INDUCTANCE
    * 6. Fonte di calore latente / EXCAVATION
    * 7. Folli ideologie indagini su un paese perduto / 239Pu
    * 8. Cena vegetariana / FAKE FOOD
    * 9. Una speranza chiamata disperazione / AMBIVALENCE
    * 10. Un uomo che può impazzire / TRIAL
    * 11. Labirinto d'erba / AFFECTION
    * 12. Per gli uomini che non hanno nemmeno un nome / SELECON
    * 13. Volto / MAKE UP
    * 14. Sta’ attento all'occhio sinistro / POKER FACE
    * 15. Il pomeriggio delle macchine / PAT.
    * 16. La storia di un uomo / ANOTHER CHANCE
    * 17. Il rapporto tra madre e figlio / RED DATA
    * 18. Il poema dell'angelo / TRANS PARENT
    * 19. Catena di relatività / CHAIN REACTION
    * 20. Caos all'estremo nord / FABRICATE FOG
    * 21. Fuga e sconfitta / EMBARRASSMENT
    * 22. La città deserta / REVERSAL PROCESS
    * 23. Il giorno in cui cadde il ponte / MARTIAL LAW
    * 24. Bombardamento aereo su Dejima / NUCLEAR POWER
    * 25. Oltre il Paradiso / THIS SIDE OF JUSTICE
    * 26. Ritorno in patria / ENDLESS8GIG
 Visit this link: http://img215.Imageshack.us/img215/3038/datitecnici.png
[quote=Evidenzio]
Rapporto generato da MediaInfo v.0.7.17

General
Catena di relatività.avi
Format                           : AVI
Format/Info                      : Audio Video Interleave
File size                        : 336 MiB
Duration                         : 25mn 18s
Overall bit rate                 : 1 857 Kbps
Writing application              : VirtualDubMod 1.5.10.2 (build 2540/release)
Writing library                  : VirtualDubMod build 2540/release

Video
ID                               : 0
Format                           : MPEG-4 Visual
Format settings, BVOP            : Yes
Format settings, QPel            : No
Format settings, GMC             : No warppoints
Format settings, Matrix          : Default (H.263)
Muxing mode                      : Packed bitstream
Codec ID                         : DX50
Codec ID/Hint                    : DivX 5
Duration                         : 25mn 18s
Bit rate                         : 1 399 Kbps
Width                            : 672 pixels
Height                           : 352 pixels
Display aspect ratio             : 1.909
Frame rate                       : 25.000 fps
Resolution                       : 24 bits
Colorimetry                      : 4:2:0
Scan type                        : Progressive
Bits/(Pixel*Frame)               : 0.237
Stream size                      : 253 MiB (75%)
Writing library                  : DivX 6.6.1.4

Audio
ID                               : 1
Format                           : AC-3
Format/Info                      : Audio Coding 3
Codec ID                         : 2000
Duration                         : 25mn 18s
Bit rate mode                    : Constant
Bit rate                         : 448 Kbps
Channel(s)                       : 6 channels
Channel positions                : Front: L C R, Surround: L R, LFE
Sampling rate                    : 48.0 KHz
Stream size                      : 81.1 MiB (24%)
Alignment                        : Split accross interleaves
Interleave, duration             : 40 ms (1.00 video frame)
Interleave, preload duration     : 500 ms
[/quote]

Visit http://www.tntvillage.scambioetico.org/